<svg width="472" height="667" viewBox="0 0 472 667" fill="none" xmlns="http://www.w3.org/2000/svg">
<path fill-rule="evenodd" clip-rule="evenodd" d="M290.983 376.147C299.855 462.199 263.795 546.653 205.742 610.789C146.214 676.556 64.6745 718.491 -23.8617 723.986C-115.741 729.688 -208.162 702.787 -276.126 640.696C-345.35 577.454 -389.266 487.03 -385.792 393.331C-382.486 304.159 -321.273 232.964 -258.652 169.394C-197.532 107.347 -128.206 41.1724 -41.141 43.4545C43.5445 45.6743 101.52 120.45 161.371 180.403C218.846 237.977 282.64 295.224 290.983 376.147Z" fill="url(#paint0_linear_172_2141)"/>
<path fill-rule="evenodd" clip-rule="evenodd" d="M-62.9435 534.939C-101.138 427.577 -105.79 297.334 -14.26 229.675C70.491 167.027 178.382 232.189 264.782 292.683C340.319 345.57 403.921 420.176 387.4 510.901C365.398 631.726 300.437 763.27 177.897 769.811C54.2118 776.413 -21.3812 651.767 -62.9435 534.939Z" stroke="url(#paint1_linear_172_2141)" stroke-width="6"/>
<path fill-rule="evenodd" clip-rule="evenodd" d="M358.671 326.986C370.178 426.316 381.362 538.844 308.884 607.733C233.134 679.732 114.354 684.988 14.5145 654.101C-74.4456 626.579 -137.507 548.728 -167.163 460.456C-191.961 386.641 -150.867 315.686 -123.694 242.712C-92.274 158.332 -86.5749 47.3487 -1.91724 16.6838C86.6025 -15.3802 179.519 45.6211 250.882 107.032C315.994 163.064 348.786 241.655 358.671 326.986Z" stroke="#EC7267"/>
<defs>
<linearGradient id="paint0_linear_172_2141" x1="291.724" y1="375.507" x2="-386.354" y2="392.724" gradientUnits="userSpaceOnUse">
<stop stop-color="#EC7267"/>
<stop offset="1" stop-color="#FDA78C"/>
</linearGradient>
<linearGradient id="paint1_linear_172_2141" x1="-56.0202" y1="553.658" x2="367.321" y2="393.012" gradientUnits="userSpaceOnUse">
<stop stop-color="#EC7267"/>
<stop offset="1" stop-color="#FDA78C"/>
</linearGradient>
</defs>
</svg>
