<svg width="515" height="396" viewBox="0 0 515 396" fill="none" xmlns="http://www.w3.org/2000/svg">
<path fill-rule="evenodd" clip-rule="evenodd" d="M852.983 -7.85295C861.855 78.1988 825.795 162.653 767.742 226.789C708.214 292.556 626.674 334.491 538.138 339.986C446.258 345.688 353.838 318.787 285.874 256.696C216.649 193.454 172.734 103.03 176.207 9.33104C179.514 -79.8413 240.726 -151.036 303.347 -214.606C364.468 -276.653 433.794 -342.828 520.859 -340.545C605.544 -338.326 663.52 -263.55 723.371 -203.597C780.846 -146.023 844.64 -88.7755 852.983 -7.85295Z" fill="url(#paint0_linear_176_2142)"/>
<path fill-rule="evenodd" clip-rule="evenodd" d="M543.671 42.9864C555.178 142.316 566.362 254.844 493.884 323.733C418.134 395.732 299.353 400.988 199.514 370.101C110.554 342.579 47.4925 264.728 17.8369 176.456C-6.96168 102.641 34.1323 31.6861 61.3054 -41.2881C92.7257 -125.668 98.4249 -236.651 183.083 -267.316C271.602 -299.38 364.519 -238.379 435.881 -176.968C500.994 -120.936 533.786 -42.3452 543.671 42.9864Z" stroke="#EC7267"/>
<defs>
<linearGradient id="paint0_linear_176_2142" x1="853.724" y1="-8.49299" x2="175.646" y2="8.72407" gradientUnits="userSpaceOnUse">
<stop stop-color="#EC7267"/>
<stop offset="1" stop-color="#FDA78C"/>
</linearGradient>
</defs>
</svg>
