<svg width="637" height="389" viewBox="0 0 637 389" fill="none" xmlns="http://www.w3.org/2000/svg">
<path fill-rule="evenodd" clip-rule="evenodd" d="M299.36 -351.058C371.514 -403.78 464.18 -418.374 549.523 -404.008C637.034 -389.276 714.108 -343.716 762.208 -273.142C812.124 -199.902 833.326 -109.028 811.313 -19.8985C788.891 70.8834 729.957 154.991 644.979 201.5C564.107 245.761 470.949 232.493 383.88 214.037C298.898 196.023 206.241 173.376 165.772 99.9232C126.408 28.4777 164.571 -59.0488 188.645 -140.319C211.763 -218.362 231.507 -301.478 299.36 -351.058Z" fill="url(#paint0_linear_288_2166)"/>
<path fill-rule="evenodd" clip-rule="evenodd" d="M425.946 -246.261C525.536 -255.243 638.312 -263.567 705.339 -189.364C775.392 -111.811 777.631 7.06487 744.219 106.088C714.448 194.321 635.021 255.386 546.025 282.791C471.605 305.708 401.716 262.826 329.455 233.81C245.899 200.258 135.097 191.743 106.591 106.335C76.7839 17.0296 140.124 -74.3089 203.326 -144.09C260.993 -207.759 340.391 -238.545 425.946 -246.261Z" stroke="#EC7267"/>
<defs>
<linearGradient id="paint0_linear_288_2166" x1="298.43" y1="-351.335" x2="644.714" y2="202.286" gradientUnits="userSpaceOnUse">
<stop stop-color="#EC7267"/>
<stop offset="1" stop-color="#FDA78C"/>
</linearGradient>
</defs>
</svg>
