<svg width="68" height="68" viewBox="0 0 68 68" fill="none" xmlns="http://www.w3.org/2000/svg">
<circle cx="34" cy="34" r="34" fill="#1F1E61"/>
<path d="M52 35.5C52.8284 35.5 53.5 34.8284 53.5 34C53.5 33.1716 52.8284 32.5 52 32.5L52 35.5ZM14.9393 32.9393C14.3536 33.5251 14.3536 34.4749 14.9393 35.0607L24.4853 44.6066C25.0711 45.1924 26.0208 45.1924 26.6066 44.6066C27.1924 44.0208 27.1924 43.0711 26.6066 42.4853L18.1213 34L26.6066 25.5147C27.1924 24.9289 27.1924 23.9792 26.6066 23.3934C26.0208 22.8076 25.0711 22.8076 24.4853 23.3934L14.9393 32.9393ZM52 32.5L16 32.5L16 35.5L52 35.5L52 32.5Z" fill="white"/>
</svg>
