<svg width="176" height="176" viewBox="0 0 176 176" fill="none" xmlns="http://www.w3.org/2000/svg">
<path d="M32.3589 134.179L33.5894 135.62L35.0949 134.469C42.4035 128.88 50.579 124.466 59.6321 121.229C68.6496 118.012 78.1017 116.4 88 116.4C97.8983 116.4 107.35 118.012 116.368 121.229C125.421 124.466 133.596 128.88 140.905 134.469L142.411 135.62L143.641 134.179C148.93 127.983 153.045 120.96 155.987 113.123L155.987 113.122C158.934 105.257 160.4 96.8778 160.4 88C160.4 67.9665 153.337 50.8455 139.249 36.7517L139.248 36.7511C125.155 22.6633 108.033 15.6 88 15.6C67.9665 15.6 50.8482 22.6634 36.7602 36.7514C22.6665 50.8451 15.6 67.9663 15.6 88C15.6 96.8783 17.0695 105.258 20.022 113.123C22.9582 120.96 27.0702 127.983 32.3589 134.179ZM54.4728 167.229L54.472 167.229C43.9879 162.708 34.8881 156.58 27.1542 148.846C19.4204 141.112 13.292 132.012 8.77092 121.528L8.77055 121.527C4.26044 111.082 2 99.9129 2 88C2 76.0871 4.26044 64.9182 8.77055 54.4728L8.77092 54.472C13.292 43.9879 19.4204 34.8881 27.1542 27.1542C34.8883 19.4202 43.9884 13.2887 54.4728 8.76175C64.9181 4.25752 76.0871 2 88 2C99.9132 2 111.082 4.25765 121.528 8.76212C132.012 13.2891 141.112 19.4204 148.846 27.1542C156.58 34.8881 162.708 43.9879 167.229 54.472L167.229 54.4728C171.74 64.9182 174 76.0871 174 88C174 99.9129 171.74 111.082 167.229 121.527L167.229 121.528C162.708 132.012 156.58 141.112 148.846 148.846C141.112 156.58 132.012 162.708 121.528 167.229L121.527 167.229C111.082 171.74 99.9129 174 88 174C76.0871 174 64.9182 171.74 54.4728 167.229ZM88 94.8C79.8593 94.8 73.0752 92.0297 67.5198 86.4802C61.9703 80.9248 59.2 74.1407 59.2 66C59.2 57.8596 61.9701 51.0757 67.5191 45.5205C73.0746 39.9705 79.8589 37.2 88 37.2C96.1411 37.2 102.925 39.9705 108.481 45.5205C114.03 51.0757 116.8 57.8596 116.8 66C116.8 74.1407 114.03 80.9248 108.48 86.4802C102.925 92.0297 96.1408 94.8 88 94.8Z" fill="#1F1E61" stroke="white" stroke-width="4"/>
</svg>
