<svg width="400" height="400" viewBox="0 0 400 400" fill="none" xmlns="http://www.w3.org/2000/svg">
<rect width="400" height="400" fill="#C7C7C7"/>
<path d="M158.437 259.375C153.49 259.375 149.284 257.643 145.82 254.18C142.357 250.716 140.625 246.51 140.625 241.562V158.437C140.625 153.49 142.357 149.284 145.82 145.82C149.284 142.357 153.49 140.625 158.437 140.625H241.562C246.51 140.625 250.716 142.357 254.18 145.82C257.643 149.284 259.375 153.49 259.375 158.437V241.562C259.375 246.51 257.643 250.716 254.18 254.18C250.716 257.643 246.51 259.375 241.562 259.375H158.437ZM158.437 247.5H241.562C243.245 247.5 244.654 246.93 245.79 245.79C246.93 244.654 247.5 243.245 247.5 241.562V158.437C247.5 156.755 246.93 155.344 245.79 154.204C244.654 153.068 243.245 152.5 241.562 152.5H158.437C156.755 152.5 155.344 153.068 154.204 154.204C153.068 155.344 152.5 156.755 152.5 158.437V241.562C152.5 243.245 153.068 244.654 154.204 245.79C155.344 246.93 156.755 247.5 158.437 247.5ZM158.437 235.625L184.64 207.812L198.813 222.414L223.438 190.625L241.562 235.625H158.437ZM176.25 188.125C172.984 188.125 170.19 186.961 167.866 184.634C165.539 182.31 164.375 179.516 164.375 176.25C164.375 172.984 165.539 170.19 167.866 167.866C170.19 165.539 172.984 164.375 176.25 164.375C179.516 164.375 182.312 165.539 184.64 167.866C186.963 170.19 188.125 172.984 188.125 176.25C188.125 179.516 186.963 182.31 184.64 184.634C182.312 186.961 179.516 188.125 176.25 188.125Z" fill="#9F9F9F"/>
</svg>
