<svg width="47" height="46" viewBox="0 0 47 46" fill="none" xmlns="http://www.w3.org/2000/svg">
<path d="M4.33219 38.3334C3.78914 38.3334 3.33425 38.1494 2.96753 37.7814C2.59953 37.4147 2.41553 36.9598 2.41553 36.4167V30.6667C2.41553 29.6126 2.79119 28.7098 3.54253 27.9585C4.29258 27.2084 5.19469 26.8334 6.24886 26.8334H12.5259C13.1648 26.8334 13.7718 26.9931 14.3468 27.3126C14.9218 27.632 15.385 28.0633 15.7364 28.6063C16.6627 29.8522 17.8051 30.8265 19.1634 31.5292C20.5204 32.232 21.9655 32.5834 23.4989 32.5834C25.0641 32.5834 26.5259 32.232 27.8842 31.5292C29.2412 30.8265 30.3669 29.8522 31.2614 28.6063C31.6766 28.0633 32.1635 27.632 32.7219 27.3126C33.2815 26.9931 33.8648 26.8334 34.4718 26.8334H40.7489C41.803 26.8334 42.7058 27.2084 43.4571 27.9585C44.2072 28.7098 44.5822 29.6126 44.5822 30.6667V36.4167C44.5822 36.9598 44.3982 37.4147 44.0302 37.7814C43.6635 38.1494 43.2086 38.3334 42.6655 38.3334H33.0822C32.5391 38.3334 32.0842 38.1494 31.7175 37.7814C31.3495 37.4147 31.1655 36.9598 31.1655 36.4167V33.973C30.0475 34.7716 28.8419 35.3786 27.5488 35.7938C26.2544 36.2091 24.9044 36.4167 23.4989 36.4167C22.1252 36.4167 20.7836 36.2014 19.4739 35.7708C18.1641 35.3389 16.9502 34.7237 15.8322 33.9251V36.4167C15.8322 36.9598 15.6488 37.4147 15.2821 37.7814C14.9141 38.1494 14.4586 38.3334 13.9155 38.3334H4.33219ZM23.4989 30.6667C22.285 30.6667 21.135 30.3869 20.0489 29.8272C18.9627 29.2689 18.0523 28.4945 17.3176 27.5042C16.7746 26.7056 16.0961 26.0751 15.2821 25.6125C14.4669 25.1487 13.5801 24.9167 12.6218 24.9167C13.3246 23.7348 14.81 22.8001 17.078 22.1127C19.3461 21.4265 21.4864 21.0834 23.4989 21.0834C25.5114 21.0834 27.6516 21.4265 29.9197 22.1127C32.1877 22.8001 33.6732 23.7348 34.3759 24.9167C33.4496 24.9167 32.5711 25.1487 31.7405 25.6125C30.91 26.0751 30.2232 26.7056 29.6801 27.5042C28.9773 28.5265 28.0829 29.3091 26.9968 29.8522C25.9107 30.3952 24.7447 30.6667 23.4989 30.6667ZM8.16553 24.9167C6.56831 24.9167 5.21067 24.3577 4.09261 23.2397C2.97456 22.1216 2.41553 20.764 2.41553 19.1667C2.41553 17.5695 2.97456 16.2119 4.09261 15.0938C5.21067 13.9758 6.56831 13.4167 8.16553 13.4167C9.76275 13.4167 11.1204 13.9758 12.2384 15.0938C13.3565 16.2119 13.9155 17.5695 13.9155 19.1667C13.9155 20.764 13.3565 22.1216 12.2384 23.2397C11.1204 24.3577 9.76275 24.9167 8.16553 24.9167ZM38.8322 24.9167C37.235 24.9167 35.8773 24.3577 34.7593 23.2397C33.6412 22.1216 33.0822 20.764 33.0822 19.1667C33.0822 17.5695 33.6412 16.2119 34.7593 15.0938C35.8773 13.9758 37.235 13.4167 38.8322 13.4167C40.4294 13.4167 41.7871 13.9758 42.9051 15.0938C44.0232 16.2119 44.5822 17.5695 44.5822 19.1667C44.5822 20.764 44.0232 22.1216 42.9051 23.2397C41.7871 24.3577 40.4294 24.9167 38.8322 24.9167ZM23.4989 19.1667C21.9016 19.1667 20.544 18.6077 19.4259 17.4897C18.3079 16.3716 17.7489 15.014 17.7489 13.4167C17.7489 11.8195 18.3079 10.4619 19.4259 9.34383C20.544 8.22578 21.9016 7.66675 23.4989 7.66675C25.0961 7.66675 26.4537 8.22578 27.5718 9.34383C28.6898 10.4619 29.2489 11.8195 29.2489 13.4167C29.2489 15.014 28.6898 16.3716 27.5718 17.4897C26.4537 18.6077 25.0961 19.1667 23.4989 19.1667Z" fill="white"/>
</svg>
