<svg width="22" height="22" viewBox="0 0 22 22" fill="none" xmlns="http://www.w3.org/2000/svg">
<path d="M11 4C10.7167 4 10.4793 3.904 10.288 3.712C10.096 3.52067 10 3.28333 10 3V1C10 0.716667 10.096 0.479 10.288 0.287C10.4793 0.0956666 10.7167 0 11 0C11.2833 0 11.521 0.0956666 11.713 0.287C11.9043 0.479 12 0.716667 12 1V3C12 3.28333 11.9043 3.52067 11.713 3.712C11.521 3.904 11.2833 4 11 4ZM15.95 6.05C15.7667 5.86667 15.675 5.63733 15.675 5.362C15.675 5.08733 15.7667 4.85 15.95 4.65L17.35 3.225C17.55 3.025 17.7873 2.925 18.062 2.925C18.3373 2.925 18.575 3.025 18.775 3.225C18.9583 3.40833 19.05 3.64167 19.05 3.925C19.05 4.20833 18.9583 4.44167 18.775 4.625L17.35 6.05C17.1667 6.23333 16.9333 6.325 16.65 6.325C16.3667 6.325 16.1333 6.23333 15.95 6.05ZM19 12C18.7167 12 18.4793 11.904 18.288 11.712C18.096 11.5207 18 11.2833 18 11C18 10.7167 18.096 10.479 18.288 10.287C18.4793 10.0957 18.7167 10 19 10H21C21.2833 10 21.5207 10.0957 21.712 10.287C21.904 10.479 22 10.7167 22 11C22 11.2833 21.904 11.5207 21.712 11.712C21.5207 11.904 21.2833 12 21 12H19ZM11 22C10.7167 22 10.4793 21.904 10.288 21.712C10.096 21.5207 10 21.2833 10 21V19C10 18.7167 10.096 18.4793 10.288 18.288C10.4793 18.096 10.7167 18 11 18C11.2833 18 11.521 18.096 11.713 18.288C11.9043 18.4793 12 18.7167 12 19V21C12 21.2833 11.9043 21.5207 11.713 21.712C11.521 21.904 11.2833 22 11 22ZM4.65 6.05L3.225 4.65C3.025 4.45 2.925 4.20833 2.925 3.925C2.925 3.64167 3.025 3.40833 3.225 3.225C3.40833 3.04167 3.64167 2.95 3.925 2.95C4.20833 2.95 4.44167 3.04167 4.625 3.225L6.05 4.65C6.23333 4.83333 6.325 5.06667 6.325 5.35C6.325 5.63333 6.23333 5.86667 6.05 6.05C5.85 6.23333 5.61667 6.325 5.35 6.325C5.08333 6.325 4.85 6.23333 4.65 6.05ZM17.35 18.775L15.95 17.35C15.7667 17.15 15.675 16.9127 15.675 16.638C15.675 16.3627 15.7667 16.1333 15.95 15.95C16.1333 15.7667 16.3627 15.675 16.638 15.675C16.9127 15.675 17.15 15.7667 17.35 15.95L18.775 17.35C18.975 17.5333 19.0707 17.7667 19.062 18.05C19.054 18.3333 18.9583 18.575 18.775 18.775C18.575 18.975 18.3333 19.075 18.05 19.075C17.7667 19.075 17.5333 18.975 17.35 18.775ZM1 12C0.716667 12 0.479333 11.904 0.288 11.712C0.096 11.5207 0 11.2833 0 11C0 10.7167 0.096 10.479 0.288 10.287C0.479333 10.0957 0.716667 10 1 10H3C3.28333 10 3.521 10.0957 3.713 10.287C3.90433 10.479 4 10.7167 4 11C4 11.2833 3.90433 11.5207 3.713 11.712C3.521 11.904 3.28333 12 3 12H1ZM3.225 18.775C3.04167 18.5917 2.95 18.3583 2.95 18.075C2.95 17.7917 3.04167 17.5583 3.225 17.375L4.65 15.95C4.83333 15.7667 5.06267 15.675 5.338 15.675C5.61267 15.675 5.85 15.7667 6.05 15.95C6.25 16.15 6.35 16.3877 6.35 16.663C6.35 16.9377 6.25 17.175 6.05 17.375L4.65 18.775C4.45 18.975 4.20833 19.075 3.925 19.075C3.64167 19.075 3.40833 18.975 3.225 18.775ZM11 17C9.33333 17 7.91667 16.4167 6.75 15.25C5.58333 14.0833 5 12.6667 5 11C5 9.33333 5.58333 7.91667 6.75 6.75C7.91667 5.58333 9.33333 5 11 5C12.6667 5 14.0833 5.58333 15.25 6.75C16.4167 7.91667 17 9.33333 17 11C17 12.6667 16.4167 14.0833 15.25 15.25C14.0833 16.4167 12.6667 17 11 17Z" fill="black"/>
</svg>
