<svg width="38" height="38" viewBox="0 0 38 38" fill="none" xmlns="http://www.w3.org/2000/svg">
<g clip-path="url(#clip0_135_2172)">
<path d="M36.4812 23.625H34.7468L33.5183 9.46094C33.4701 8.25651 33.0004 7.23275 32.1091 6.38965C31.2179 5.54655 30.1941 5.125 29.0378 5.125H21.0164V2.01758C21.0164 1.00586 20.5105 0.5 19.4988 0.5C18.4871 0.5 17.9812 1.00586 17.9812 2.01758V5.125H9.95972C8.80347 5.125 7.7797 5.54655 6.88843 6.38965C5.99715 7.23275 5.52743 8.25651 5.47925 9.46094L4.25073 23.625H2.51636C2.08276 23.625 1.72144 23.7695 1.43237 24.0586C1.14331 24.3477 0.998779 24.709 0.998779 25.1426C0.998779 25.6243 1.14331 26.0098 1.43237 26.2988C1.72144 26.5879 2.08276 26.7324 2.51636 26.7324H8.22534L5.62378 35.4766C5.47925 35.862 5.52743 36.2474 5.76831 36.6328C6.0092 37.0182 6.32235 37.2591 6.70776 37.3555H7.14136C7.76766 37.3555 8.29761 36.9941 8.7312 36.2715L11.4773 26.7324H17.9812V32.875C17.9812 33.8867 18.4871 34.3926 19.4988 34.3926C20.5105 34.3926 21.0164 33.8867 21.0164 32.875V26.7324H27.5203L30.2664 36.416C30.4109 37.1387 30.9408 37.5 31.8562 37.5H32.2898C33.2052 37.1628 33.5665 36.5365 33.3738 35.6211L30.7722 26.7324H36.4812C36.9148 26.7324 37.2761 26.5879 37.5652 26.2988C37.8542 26.0098 37.9988 25.6243 37.9988 25.1426C37.9988 24.709 37.8542 24.3477 37.5652 24.0586C37.2761 23.7695 36.9148 23.625 36.4812 23.625ZM7.28589 23.625L8.58667 9.60547C8.58667 9.22005 8.74325 8.89486 9.0564 8.62988C9.36955 8.36491 9.71883 8.23242 10.1042 8.23242H29.0378C29.4714 8.23242 29.8448 8.36491 30.158 8.62988C30.4711 8.89486 30.6277 9.22005 30.6277 9.60547L31.8562 23.625H7.28589Z" fill="white"/>
</g>
<defs>
<clipPath id="clip0_135_2172">
<rect width="37" height="37" fill="white" transform="translate(0.998779 0.5)"/>
</clipPath>
</defs>
</svg>
