<svg width="46" height="46" viewBox="0 0 46 46" fill="none" xmlns="http://www.w3.org/2000/svg">
<path d="M8.855 34.73C10.81 33.235 12.995 32.0559 15.41 31.1926C17.825 30.3309 20.355 29.9 23 29.9C25.645 29.9 28.175 30.3309 30.59 31.1926C33.005 32.0559 35.19 33.235 37.145 34.73C38.4867 33.1583 39.5316 31.3758 40.2799 29.3825C41.0266 27.3892 41.4 25.2617 41.4 23C41.4 17.9017 39.6083 13.56 36.0249 9.9751C32.44 6.3917 28.0983 4.6 23 4.6C17.9017 4.6 13.5608 6.3917 9.9774 9.9751C6.39247 13.56 4.6 17.9017 4.6 23C4.6 25.2617 4.97413 27.3892 5.7224 29.3825C6.46913 31.3758 7.51333 33.1583 8.855 34.73ZM23 25.3C20.7383 25.3 18.8309 24.5241 17.2776 22.9724C15.7259 21.4191 14.95 19.5117 14.95 17.25C14.95 14.9883 15.7259 13.0809 17.2776 11.5276C18.8309 9.97587 20.7383 9.2 23 9.2C25.2617 9.2 27.1691 9.97587 28.7224 11.5276C30.2741 13.0809 31.05 14.9883 31.05 17.25C31.05 19.5117 30.2741 21.4191 28.7224 22.9724C27.1691 24.5241 25.2617 25.3 23 25.3ZM23 46C19.8183 46 16.8283 45.3959 14.03 44.1876C11.2317 42.9809 8.7975 41.3425 6.7275 39.2725C4.6575 37.2025 3.01913 34.7683 1.8124 31.97C0.604134 29.1717 0 26.1817 0 23C0 19.8183 0.604134 16.8283 1.8124 14.03C3.01913 11.2317 4.6575 8.7975 6.7275 6.7275C8.7975 4.6575 11.2317 3.01837 14.03 1.8101C16.8283 0.603367 19.8183 0 23 0C26.1817 0 29.1717 0.603367 31.97 1.8101C34.7683 3.01837 37.2025 4.6575 39.2725 6.7275C41.3425 8.7975 42.9809 11.2317 44.1876 14.03C45.3959 16.8283 46 19.8183 46 23C46 26.1817 45.3959 29.1717 44.1876 31.97C42.9809 34.7683 41.3425 37.2025 39.2725 39.2725C37.2025 41.3425 34.7683 42.9809 31.97 44.1876C29.1717 45.3959 26.1817 46 23 46Z" fill="#1F1E61"/>
</svg>
